<svg id="Calque_1" data-name="Calque 1" xmlns="http://www.w3.org/2000/svg" viewBox="0 0 28.63 72.88">
  <defs>
    <style>
      .cls-1 {
        fill: #179DD9;
      }
	</style>
  </defs>
  <title>1</title>
  <path class="cls-1" d="M85.46,281.07H71a7.11,7.11,0,0,0-7.09,7.09v18.13a7.11,7.11,0,0,0,6.32,7v17.41h3.5V309.87H71a3.59,3.59,0,0,1-3.59-3.59V288.15A3.59,3.59,0,0,1,71,284.57H85.46a3.59,3.59,0,0,1,3.59,3.59v18.13a3.59,3.59,0,0,1-3.59,3.59H82.72v20.87h3.5V313.32a7.11,7.11,0,0,0,6.32-7V288.15A7.11,7.11,0,0,0,85.46,281.07Z" transform="translate(-63.92 -257.85)"/>
  <path class="cls-1" d="M78.24,257.86a9.61,9.61,0,1,0,9.62,9.61A9.61,9.61,0,0,0,78.24,257.86Zm0,15.71a6.11,6.11,0,1,1,6.12-6.11A6.12,6.12,0,0,1,78.24,273.57Z" transform="translate(-63.92 -257.85)"/>
</svg>
