<svg id="Calque_1" data-name="Calque 1" xmlns="http://www.w3.org/2000/svg" viewBox="0 0 136.63 73.01">
  <defs>
    <style>
      .cls-1 {
         fill: #179DD9;
      }
    </style>
  </defs>
  <title>4</title>
  <path class="cls-1" d="M85.18,281.07H70.73a7.11,7.11,0,0,0-7.09,7.09v18.13a7.11,7.11,0,0,0,6.32,7v17.41h3.5V309.87H70.73a3.59,3.59,0,0,1-3.59-3.59V288.15a3.59,3.59,0,0,1,3.59-3.59H85.18a3.59,3.59,0,0,1,3.59,3.59v18.13a3.59,3.59,0,0,1-3.59,3.59H82.43v20.87h3.5V313.32a7.11,7.11,0,0,0,6.32-7V288.15A7.11,7.11,0,0,0,85.18,281.07Z" transform="translate(-63.64 -257.85)"/>
  <path class="cls-1" d="M78,257.86a9.61,9.61,0,1,0,9.62,9.61A9.61,9.61,0,0,0,78,257.86Zm0,15.71a6.11,6.11,0,1,1,6.12-6.11A6.12,6.12,0,0,1,78,273.57Z" transform="translate(-63.64 -257.85)"/>
  <g>
    <path class="cls-1" d="M129.86,306.62l-3.6-10.16-5-14.12a1.75,1.75,0,0,0-1.65-1.17H107.07a1.75,1.75,0,0,0-1.65,1.17L102,292h0l-5.17,14.58c-1.29,3.68.84,6.69,4.74,6.69h3.89v17.33H109V309.81h-7.39a1.67,1.67,0,0,1-1.39-.53,1.82,1.82,0,0,1,0-1.54l8.1-23.07h10.1l8.08,23.07a1.82,1.82,0,0,1,0,1.54,1.67,1.67,0,0,1-1.39.53h-7.39l0,20.83h3.5V313.31h3.87C129,313.31,131.16,310.3,129.86,306.62Z" transform="translate(-63.64 -257.85)"/>
    <path class="cls-1" d="M113.37,258a9.61,9.61,0,1,0,9.61,9.61A9.61,9.61,0,0,0,113.37,258Zm0,15.71a6.11,6.11,0,1,1,6.11-6.11A6.11,6.11,0,0,1,113.37,273.67Z" transform="translate(-63.64 -257.85)"/>
  </g>
  <path class="cls-1" d="M155.35,281.2H140.89a7.11,7.11,0,0,0-7.09,7.09v18.13a7.11,7.11,0,0,0,6.32,7v17.41h3.5V310h-2.75a3.59,3.59,0,0,1-3.59-3.59V288.29a3.59,3.59,0,0,1,3.59-3.59h14.45a3.59,3.59,0,0,1,3.59,3.59v18.13a3.59,3.59,0,0,1-3.59,3.59H152.6v20.87h3.5V313.46a7.11,7.11,0,0,0,6.32-7V288.29A7.11,7.11,0,0,0,155.35,281.2Z" transform="translate(-63.64 -257.85)"/>
  <path class="cls-1" d="M148.12,258a9.61,9.61,0,1,0,9.62,9.61A9.61,9.61,0,0,0,148.12,258Zm0,15.71a6.11,6.11,0,1,1,6.12-6.11A6.12,6.12,0,0,1,148.12,273.7Z" transform="translate(-63.64 -257.85)"/>
  <g>
    <path class="cls-1" d="M199.9,306.75l-3.6-10.16-5-14.12a1.75,1.75,0,0,0-1.65-1.17H177.11a1.75,1.75,0,0,0-1.65,1.17l-3.4,9.7h0l-5.17,14.58c-1.29,3.68.84,6.69,4.74,6.69h3.89v17.33H179V309.94h-7.39a1.67,1.67,0,0,1-1.39-.53,1.82,1.82,0,0,1,0-1.54l8.1-23.07h10.1l8.08,23.07a1.82,1.82,0,0,1,0,1.54,1.67,1.67,0,0,1-1.39.53h-7.39l0,20.83h3.5V313.44h3.87C199.06,313.44,201.19,310.43,199.9,306.75Z" transform="translate(-63.64 -257.85)"/>
    <path class="cls-1" d="M183.4,258.09a9.61,9.61,0,1,0,9.61,9.61A9.61,9.61,0,0,0,183.4,258.09Zm0,15.71a6.11,6.11,0,1,1,6.11-6.11A6.11,6.11,0,0,1,183.4,273.8Z" transform="translate(-63.64 -257.85)"/>
  </g>
</svg>
